<svg width="25" height="28" viewBox="0 0 25 28" fill="none" xmlns="http://www.w3.org/2000/svg">
<path d="M15.4126 18.7638L16.7737 17.4027C16.8709 17.3055 16.9195 17.1921 16.9195 17.0624C16.9195 16.9328 16.8709 16.8194 16.7737 16.7222L13.4682 13.3923C13.533 13.2141 13.5816 13.0358 13.614 12.8576C13.6464 12.6793 13.6626 12.4768 13.6626 12.2499C13.6626 11.3263 13.3345 10.5364 12.6782 9.88015C12.022 9.2239 11.232 8.89578 10.3084 8.89578C10.033 8.89578 9.75751 8.93224 9.48204 9.00515C9.20658 9.07807 8.93922 9.17934 8.67996 9.30897L10.9647 11.5937L9.60357 12.9548L7.31885 10.6701C7.18922 10.9293 7.08794 11.1967 7.01503 11.4722C6.94211 11.7476 6.90565 12.0231 6.90565 12.2986C6.90565 13.2222 7.23378 14.0121 7.89003 14.6683C8.54628 15.3246 9.33621 15.6527 10.2598 15.6527C10.4705 15.6527 10.669 15.6365 10.8553 15.6041C11.0416 15.5717 11.2239 15.5231 11.4022 15.4583L14.732 18.7638C14.8293 18.8611 14.9427 18.9097 15.0723 18.9097C15.202 18.9097 15.3154 18.8611 15.4126 18.7638ZM12.0098 23.7222C10.6649 23.7222 9.40102 23.467 8.21815 22.9565C7.03528 22.4461 6.00635 21.7534 5.13135 20.8784C4.25635 20.0034 3.56364 18.9745 3.05322 17.7916C2.54281 16.6087 2.2876 15.3449 2.2876 13.9999C2.2876 12.655 2.54281 11.3911 3.05322 10.2083C3.56364 9.02541 4.25635 7.99647 5.13135 7.12147C6.00635 6.24647 7.03528 5.55376 8.21815 5.04335C9.40102 4.53293 10.6649 4.27772 12.0098 4.27772C13.3547 4.27772 14.6186 4.53293 15.8015 5.04335C16.9844 5.55376 18.0133 6.24647 18.8883 7.12147C19.7633 7.99647 20.456 9.02541 20.9664 10.2083C21.4768 11.3911 21.732 12.655 21.732 13.9999C21.732 15.3449 21.4768 16.6087 20.9664 17.7916C20.456 18.9745 19.7633 20.0034 18.8883 20.8784C18.0133 21.7534 16.9844 22.4461 15.8015 22.9565C14.6186 23.467 13.3547 23.7222 12.0098 23.7222ZM12.0098 21.7777C14.1811 21.7777 16.0202 21.0243 17.5272 19.5173C19.0341 18.0104 19.7876 16.1712 19.7876 13.9999C19.7876 11.8286 19.0341 9.98953 17.5272 8.48258C16.0202 6.97564 14.1811 6.22217 12.0098 6.22217C9.83852 6.22217 7.9994 6.97564 6.49246 8.48258C4.98551 9.98953 4.23204 11.8286 4.23204 13.9999C4.23204 16.1712 4.98551 18.0104 6.49246 19.5173C7.9994 21.0243 9.83852 21.7777 12.0098 21.7777Z" fill="#1F7F3C"/>
</svg>
