<svg width="25" height="28" viewBox="0 0 25 28" fill="none" xmlns="http://www.w3.org/2000/svg">
<path d="M6.17673 15.9444H13.9545V13.9999H6.17673V15.9444ZM6.17673 13.0277H17.8434V11.0833H6.17673V13.0277ZM6.17673 10.1111H17.8434V8.16661H6.17673V10.1111ZM2.28784 23.7222V6.22217C2.28784 5.68744 2.47824 5.22969 2.85902 4.8489C3.23981 4.46812 3.69756 4.27772 4.23229 4.27772H19.7878C20.3226 4.27772 20.7803 4.46812 21.1611 4.8489C21.5419 5.22969 21.7323 5.68744 21.7323 6.22217V17.8888C21.7323 18.4236 21.5419 18.8813 21.1611 19.2621C20.7803 19.6429 20.3226 19.8333 19.7878 19.8333H6.17673L2.28784 23.7222ZM5.35034 17.8888H19.7878V6.22217H4.23229V18.9826L5.35034 17.8888Z" fill="#1F7F3C"/>
</svg>
