<svg width="25" height="28" viewBox="0 0 25 28" fill="none" xmlns="http://www.w3.org/2000/svg">
<path d="M6.9059 22.75L6.66284 20.6111L9.43368 12.9792C9.67673 13.206 9.94004 13.3964 10.2236 13.5503C10.5072 13.7043 10.811 13.8218 11.1351 13.9028L8.46145 21.2431L6.9059 22.75ZM17.1142 22.75L15.5587 21.2431L12.8851 13.9028C13.2091 13.8218 13.513 13.7043 13.7965 13.5503C14.0801 13.3964 14.3434 13.206 14.5865 12.9792L17.3573 20.6111L17.1142 22.75ZM12.0101 13.0278C11.1999 13.0278 10.5112 12.7442 9.94409 12.1771C9.37696 11.61 9.0934 10.9213 9.0934 10.1111C9.0934 9.47917 9.27569 8.91609 9.64027 8.42188C10.0049 7.92766 10.4707 7.58333 11.0378 7.38889V5.25H12.9823V7.38889C13.5494 7.58333 14.0153 7.92766 14.3799 8.42188C14.7444 8.91609 14.9267 9.47917 14.9267 10.1111C14.9267 10.9213 14.6432 11.61 14.076 12.1771C13.5089 12.7442 12.8202 13.0278 12.0101 13.0278ZM12.0101 11.0833C12.2855 11.0833 12.5164 10.9902 12.7028 10.8038C12.8891 10.6175 12.9823 10.3866 12.9823 10.1111C12.9823 9.83565 12.8891 9.60474 12.7028 9.4184C12.5164 9.23206 12.2855 9.13889 12.0101 9.13889C11.7346 9.13889 11.5037 9.23206 11.3174 9.4184C11.131 9.60474 11.0378 9.83565 11.0378 10.1111C11.0378 10.3866 11.131 10.6175 11.3174 10.8038C11.5037 10.9902 11.7346 11.0833 12.0101 11.0833Z" fill="#1F7F3C"/>
</svg>
