<svg width="25" height="28" viewBox="0 0 25 28" fill="none" xmlns="http://www.w3.org/2000/svg">
<path d="M8.70432 24.2084L6.8571 21.0973L3.3571 20.3195L3.69737 16.7223L1.31543 14L3.69737 11.2778L3.3571 7.6806L6.8571 6.90282L8.70432 3.79171L12.0099 5.20143L15.3154 3.79171L17.1627 6.90282L20.6627 7.6806L20.3224 11.2778L22.7043 14L20.3224 16.7223L20.6627 20.3195L17.1627 21.0973L15.3154 24.2084L12.0099 22.7987L8.70432 24.2084ZM9.53071 21.7292L12.0099 20.6598L14.5377 21.7292L15.8988 19.3959L18.5724 18.7639L18.3293 16.0417L20.1279 14L18.3293 11.9098L18.5724 9.18754L15.8988 8.60421L14.489 6.27087L12.0099 7.34032L9.4821 6.27087L8.12099 8.60421L5.44737 9.18754L5.69043 11.9098L3.89182 14L5.69043 16.0417L5.44737 18.8125L8.12099 19.3959L9.53071 21.7292ZM10.989 17.4514L16.4821 11.9584L15.121 10.5487L10.989 14.6806L8.89876 12.6389L7.53765 14L10.989 17.4514Z" fill="#1F7F3C"/>
</svg>
